# xmcd CD database file
#
# Track frame offsets:
#	150
#	24857
#	40046
#	52872
#	69241
#	93977
#	126064
#	148243
#	174901
#	194373
#
# Disc length: 3060 seconds
#
# Revision: 2
# Processed by: cddbd v1.5.2PL0 Copyright (c) Steve Scherf et al.
# Submitted via: CDex 1.70beta2
#
DISCID=790bf20a
DTITLE=Various Artist - CAFE BLUE NOTE organic [Disc 1]
DYEAR=2012
DGENRE=Jazz
TTITLE0=The Ice Hotel - Stacey Kent
TTITLE1=Sunrise - Norah Jones
TTITLE2=I Say A Little Prayer - Traincha
TTITLE3=It Could Only Happen With You - Duke Pearson
TTITLE4=On Green Dolphin Street - Horace Parlan
TTITLE5=Wives And Lovers - Grant Green
TTITLE6=Softly As In A Morning Sunrise - Dianne Reeves
TTITLE7=Maiden Voyage - Bobby Hutcherson
TTITLE8=Some Day My Prince Will Come - High Five
TTITLE9=Speak Like A Child - Herbie Hancock
EXTD=YEAR: 2012
EXTT0=
EXTT1=
EXTT2=
EXTT3=
EXTT4=
EXTT5=
EXTT6=
EXTT7=
EXTT8=
EXTT9=
PLAYORDER=
